<?xml version="1.0" encoding="UTF-8"?><svg xmlns="http://www.w3.org/2000/svg" viewBox="0 0 598.98 326.81"><defs><style>.c{fill:none;stroke:#ce5b48;stroke-miterlimit:10;stroke-width:4px;}.d{fill:#fff;}.d,.e{stroke-width:0px;}.e{fill:#643346;}</style></defs><g id="a"><rect class="e" width="598.98" height="326.81"/></g><g id="b"><path class="d" d="M57.11,190.65v-56.64h21.44c13.6,0,21.12,5.52,21.12,17.2s-7.52,17.36-20.56,17.36h-9.52v22.08h-12.48ZM69.59,158.01h8.56c4.96,0,8.56-2.16,8.56-6.8,0-4.4-3.36-6.64-10.4-6.64h-6.72v13.44Z"/><path class="d" d="M126.71,134.01c17.92,0,33.04,8.08,33.04,28.4,0,18-14.56,28.24-31.52,28.24h-20.72v-56.64h19.2ZM126.87,179.13c11.12,0,19.92-4.56,19.92-17.2,0-11.28-8.96-16.4-19.12-16.4h-7.68v33.6h6.88Z"/><path class="d" d="M168.71,134.01h38v11.52h-25.52v11.52h23.6v11.52h-23.6v22.08h-12.48v-56.64Z"/><path class="d" d="M213.63,191.44l23.12-35.2h13.12v35.2h7.28v10.08h-7.28v11.36h-11.52v-11.36h-24.72v-10.08ZM225.63,191.44h12.72v-19.52h-.16l-12.56,19.52Z"/><path class="d" d="M263.91,134.01h13.6l9.04,36.32h.16l11.84-36.32h11.6l11.76,37.28h.16l9.52-37.28h12.64l-16.56,56.64h-11.12l-12.48-39.2h-.16l-12.48,39.2h-10.72l-16.8-56.64Z"/><path class="d" d="M396.47,140.89l-9.6,7.84c-2.72-3.28-6.48-4.64-10.72-4.64-8.88,0-16.4,7.12-16.4,18.24,0,9.44,6.08,18.24,16,18.24,4.88,0,8.96-2,11.68-6.08l10.4,7.76c-4.48,6.56-12.72,9.84-20.48,9.84-17.76,0-30.56-11.68-30.56-29.76s12.72-29.76,30.56-29.76c7.44,0,14.88,2.88,19.12,8.32Z"/><path class="d" d="M398.79,190.65l24.48-56.64h10.32l24.64,56.64h-14.08l-4.88-12h-22l-4.72,12h-13.76ZM421.19,168.09h13.84l-6.96-17.6-6.88,17.6Z"/><path class="d" d="M513.99,139.85l-8.8,9.6c-3.76-4-8.32-5.36-13.68-5.36-10.64,0-17.68,7.6-17.68,18.24s7.04,18.24,17.68,18.24c4.08,0,8.08-.88,11.68-2.8v-9.2h-10.16v-11.52h22.16v29.6c-7.36,3.92-15.44,5.44-23.68,5.44-17.84,0-30.64-11.52-30.64-29.76s12.8-29.76,30.64-29.76c8.32,0,16.32,1.68,22.48,7.28Z"/><path class="c" d="M291.53,124.01c17.41-55.1,68.93-95.05,129.79-95.05,75.16,0,136.09,60.93,136.09,136.09s-60.93,136.09-136.09,136.09c-60.86,0-112.38-39.95-129.79-95.05"/></g></svg>