<svg width="102" height="34" viewBox="0 0 102 34" fill="none" xmlns="http://www.w3.org/2000/svg">
<rect width="43.3433" height="33.2273" fill="#D93B50"/>
<path d="M4.94714 24.9545V8.15453H8.16314L18.0751 20.2505H16.5151V8.15453H20.3551V24.9545H17.1631L7.22714 12.8585H8.78714V24.9545H4.94714ZM32.442 25.2425C31.114 25.2425 29.89 25.0345 28.77 24.6185C27.666 24.1865 26.698 23.5785 25.866 22.7945C25.05 22.0105 24.41 21.0905 23.946 20.0345C23.498 18.9785 23.274 17.8185 23.274 16.5545C23.274 15.2905 23.498 14.1305 23.946 13.0745C24.41 12.0185 25.058 11.0985 25.89 10.3145C26.722 9.53053 27.698 8.93053 28.818 8.51453C29.938 8.08253 31.17 7.86653 32.514 7.86653C34.002 7.86653 35.338 8.11453 36.522 8.61053C37.722 9.10653 38.73 9.82653 39.546 10.7705L37.05 13.0745C36.442 12.4345 35.778 11.9625 35.058 11.6585C34.338 11.3385 33.554 11.1785 32.706 11.1785C31.89 11.1785 31.146 11.3065 30.474 11.5625C29.802 11.8185 29.218 12.1865 28.722 12.6665C28.242 13.1465 27.866 13.7145 27.594 14.3705C27.338 15.0265 27.21 15.7545 27.21 16.5545C27.21 17.3385 27.338 18.0585 27.594 18.7145C27.866 19.3705 28.242 19.9465 28.722 20.4425C29.218 20.9225 29.794 21.2905 30.45 21.5465C31.122 21.8025 31.858 21.9305 32.658 21.9305C33.426 21.9305 34.17 21.8105 34.89 21.5705C35.626 21.3145 36.338 20.8905 37.026 20.2985L39.234 23.1065C38.322 23.7945 37.258 24.3225 36.042 24.6905C34.842 25.0585 33.642 25.2425 32.442 25.2425ZM35.682 22.6025V16.2905H39.234V23.1065L35.682 22.6025Z" fill="white"/>
<path d="M49.6425 24.9545V8.15453H56.9145C58.4185 8.15453 59.7145 8.40253 60.8025 8.89853C61.8905 9.37853 62.7305 10.0745 63.3225 10.9865C63.9145 11.8985 64.2105 12.9865 64.2105 14.2505C64.2105 15.4985 63.9145 16.5785 63.3225 17.4905C62.7305 18.4025 61.8905 19.1065 60.8025 19.6025C59.7145 20.0825 58.4185 20.3225 56.9145 20.3225H51.8025L53.5305 18.5705V24.9545H49.6425ZM53.5305 19.0025L51.8025 17.1545H56.6985C57.8985 17.1545 58.7945 16.8985 59.3865 16.3865C59.9785 15.8745 60.2745 15.1625 60.2745 14.2505C60.2745 13.3225 59.9785 12.6025 59.3865 12.0905C58.7945 11.5785 57.8985 11.3225 56.6985 11.3225H51.8025L53.5305 9.47453V19.0025ZM66.9862 24.9545V8.15453H74.6182C76.4422 8.15453 78.0502 8.50653 79.4422 9.21053C80.8342 9.89853 81.9222 10.8665 82.7062 12.1145C83.4902 13.3625 83.8822 14.8425 83.8822 16.5545C83.8822 18.2505 83.4902 19.7305 82.7062 20.9945C81.9222 22.2425 80.8342 23.2185 79.4422 23.9225C78.0502 24.6105 76.4422 24.9545 74.6182 24.9545H66.9862ZM70.8742 21.7625H74.4262C75.5462 21.7625 76.5142 21.5545 77.3302 21.1385C78.1622 20.7065 78.8022 20.0985 79.2502 19.3145C79.7142 18.5305 79.9462 17.6105 79.9462 16.5545C79.9462 15.4825 79.7142 14.5625 79.2502 13.7945C78.8022 13.0105 78.1622 12.4105 77.3302 11.9945C76.5142 11.5625 75.5462 11.3465 74.4262 11.3465H70.8742V21.7625ZM90.4143 15.7145H98.4783V18.8345H90.4143V15.7145ZM90.7023 24.9545H86.8143V8.15453H99.5103V11.2745H90.7023V24.9545Z" fill="black"/>
</svg>
